<?xml version="1.0" encoding="iso-8859-1"?>
<!-- Generator: Adobe Illustrator 19.0.0, SVG Export Plug-In . SVG Version: 6.00 Build 0)  -->
<svg version="1.1" id="Capa_1" xmlns="http://www.w3.org/2000/svg" xmlns:xlink="http://www.w3.org/1999/xlink" x="0px" y="0px"
	 viewBox="0 0 512 512" style="enable-background:new 0 0 512 512;" xml:space="preserve">
<path style="fill:#AFAFAF;" d="M414.003,506.88H97.997c-21.299,0-39.322-15.77-42.189-36.966L11.469,135.68
	C8.09,110.182,27.955,87.552,53.658,87.552h404.685c25.702,0,45.568,22.63,42.189,48.128l-44.339,334.336
	C453.427,491.11,435.302,506.88,414.003,506.88z"/>
<path style="fill:#EFEFEF;" d="M177.766,491.52h-79.77c-13.619,0-25.19-10.138-26.931-23.654L26.726,133.632
	c-1.024-7.885,1.229-15.462,6.554-21.504c5.222-5.939,12.493-9.318,20.48-9.318c2.867,0,5.12,2.253,5.12,5.12s-2.253,5.12-5.12,5.12
	c-4.915,0-9.523,2.048-12.698,5.734c-3.277,3.686-4.71,8.499-4.096,13.414l44.339,334.336c1.126,8.397,8.294,14.746,16.794,14.746
	h79.77c2.867,0,5.12,2.253,5.12,5.12S180.634,491.52,177.766,491.52z"/>
<g>
	<path style="fill:#221F1F;" d="M114.688,92.672h-7.066c-2.867,0-5.12-2.253-5.12-5.12s2.253-5.12,5.12-5.12h7.066
		c2.867,0,5.12,2.253,5.12,5.12S117.555,92.672,114.688,92.672z"/>
	<path style="fill:#221F1F;" d="M414.003,512H97.997c-23.859,0-44.134-17.818-47.206-41.37L6.451,136.294
		c-1.843-13.619,2.355-27.341,11.366-37.683S39.936,82.33,53.658,82.33h33.485c2.867,0,5.12,2.253,5.12,5.12s-2.253,5.12-5.12,5.12
		H53.658c-10.752,0-20.992,4.608-28.16,12.8c-7.066,8.09-10.342,18.842-8.909,29.594L60.928,469.3
		c2.458,18.534,18.432,32.461,37.069,32.461h316.006c18.739,0,34.611-13.926,37.069-32.461l44.339-334.336
		c1.434-10.65-1.843-21.504-8.909-29.594s-17.408-12.8-28.16-12.8h-324.71c-2.867,0-5.12-2.253-5.12-5.12s2.253-5.12,5.12-5.12
		h324.71c13.722,0,26.829,5.939,35.84,16.282c9.011,10.342,13.21,24.064,11.366,37.683L461.21,470.63
		C458.138,494.182,437.862,512,414.003,512z"/>
</g>
<circle style="fill:#72C1E8;" cx="256" cy="102.91" r="97.79"/>
<g>
	<path style="fill:#C5E5FF;" d="M235.11,33.587c-2.253,0-4.301-1.434-4.915-3.789c-0.717-2.765,0.819-5.53,3.584-6.349
		c0.819-0.205,1.536-0.41,2.355-0.614c2.765-0.717,5.53,1.024,6.246,3.686s-1.024,5.53-3.686,6.246
		c-0.717,0.205-1.434,0.307-2.048,0.512C236.032,33.485,235.622,33.587,235.11,33.587z"/>
	<path style="fill:#C5E5FF;" d="M190.566,149.197c-1.741,0-3.379-0.819-4.301-2.355c-8.294-13.107-12.698-28.365-12.698-43.93
		c0-29.798,16.179-57.446,42.291-71.987c2.458-1.331,5.632-0.512,6.963,1.946s0.512,5.632-1.946,6.963
		c-22.835,12.8-37.069,36.966-37.069,63.078c0,13.619,3.891,26.931,11.162,38.502c1.536,2.355,0.819,5.53-1.638,7.066
		C192.512,148.992,191.488,149.197,190.566,149.197z"/>
</g>
<path style="fill:#464A51;" d="M423.526,138.752h-29.594c-8.294,0-15.872,5.018-18.944,12.8
	c-19.148,46.797-65.33,79.872-118.988,79.872s-99.84-33.075-118.989-79.974c-3.174-7.68-10.65-12.8-18.944-12.8H88.474
	c-13.21,0-23.347,11.571-21.606,24.678l36.25,273.408c1.434,10.854,10.65,18.944,21.606,18.944H387.38
	c10.957,0,20.173-8.09,21.606-18.944l36.25-273.408C446.874,150.323,436.736,138.752,423.526,138.752z"/>
<path style="fill:#221F1F;" d="M387.379,460.8H124.621c-13.414,0-24.883-10.035-26.726-23.347l-36.25-273.408
	c-1.024-7.68,1.331-15.462,6.451-21.299c5.12-5.837,12.493-9.216,20.275-9.216h29.594c10.445,0,19.763,6.246,23.757,15.974
	c19.149,46.694,64,76.8,114.278,76.8s95.13-30.106,114.278-76.8c3.994-9.728,13.312-15.974,23.757-15.974h29.594
	c7.782,0,15.155,3.379,20.275,9.216s7.475,13.619,6.451,21.299l-36.25,273.408C412.262,450.765,400.794,460.8,387.379,460.8z
	 M88.474,143.872c-4.813,0-9.421,2.048-12.493,5.734c-3.174,3.584-4.608,8.397-3.994,13.21l36.25,273.408
	c1.126,8.294,8.192,14.438,16.486,14.438h262.656c8.294,0,15.462-6.246,16.486-14.438l36.25-273.408
	c0.614-4.813-0.819-9.523-3.994-13.21s-7.782-5.734-12.595-5.734h-29.594c-6.246,0-11.878,3.789-14.234,9.626
	c-9.933,24.269-26.726,44.954-48.435,59.904c-22.221,15.155-48.23,23.142-75.264,23.142s-53.043-8.09-75.366-23.347
	c-21.709-14.848-38.502-35.533-48.435-59.904c-2.355-5.837-7.987-9.626-14.234-9.626h-29.49V143.872z"/>
<g>
	<path style="fill:#828A97;" d="M87.859,171.213c-2.56,0-4.71-1.843-5.12-4.403l-0.717-5.427c-0.41-2.765,1.638-5.427,4.403-5.734
		c2.765-0.41,5.427,1.638,5.734,4.403l0.717,5.427c0.41,2.765-1.638,5.427-4.403,5.734C88.269,171.11,88.064,171.213,87.859,171.213
		z"/>
	<path style="fill:#828A97;" d="M124.621,440.32c-3.174,0-5.939-2.355-6.349-5.632L85.504,187.085
		c-0.41-2.765,1.638-5.427,4.403-5.734c2.765-0.41,5.427,1.638,5.734,4.403l32.563,245.658c1.024,0.922,1.638,2.253,1.638,3.686
		C129.741,438.067,127.488,440.32,124.621,440.32z"/>
</g>
<path style="fill:#221F1F;" d="M256,205.824c-56.73,0-102.912-46.182-102.912-102.912S199.27,0,256,0
	s102.912,46.182,102.912,102.912S312.73,205.824,256,205.824z M256,10.24c-51.098,0-92.672,41.574-92.672,92.672
	s41.574,92.672,92.672,92.672s92.672-41.574,92.672-92.672S307.098,10.24,256,10.24z"/>
<circle style="fill:#FC5D3D;" cx="256" cy="102.91" r="18.33"/>
<g>
	<path style="fill:#221F1F;" d="M256,126.362c-12.902,0-23.45-10.547-23.45-23.45s10.547-23.45,23.45-23.45
		c12.902,0,23.45,10.547,23.45,23.45S268.902,126.362,256,126.362z M256,89.805c-7.27,0-13.21,5.939-13.21,13.21
		s5.939,13.21,13.21,13.21c7.27,0,13.21-5.939,13.21-13.21S263.27,89.805,256,89.805z"/>
	<path style="fill:#221F1F;" d="M256,38.81c-2.867,0-5.12-2.253-5.12-5.12v-9.011c0-2.867,2.253-5.12,5.12-5.12
		c2.867,0,5.12,2.253,5.12,5.12v9.011C261.12,36.557,258.867,38.81,256,38.81z"/>
	<path style="fill:#221F1F;" d="M256,186.266c-2.867,0-5.12-2.253-5.12-5.12v-9.011c0-2.867,2.253-5.12,5.12-5.12
		c2.867,0,5.12,2.253,5.12,5.12v9.011C261.12,184.013,258.867,186.266,256,186.266z"/>
	<path style="fill:#221F1F;" d="M304.947,59.085c-1.331,0-2.662-0.512-3.584-1.536c-2.048-2.048-2.048-5.222,0-7.27l6.349-6.349
		c2.048-2.048,5.222-2.048,7.27,0s2.048,5.222,0,7.27l-6.349,6.349C307.61,58.573,306.278,59.085,304.947,59.085z"/>
	<path style="fill:#221F1F;" d="M200.704,163.328c-1.331,0-2.662-0.512-3.584-1.536c-2.048-2.048-2.048-5.222,0-7.27l6.349-6.349
		c2.048-2.048,5.222-2.048,7.27,0s2.048,5.222,0,7.27l-6.349,6.349C203.264,162.918,202.035,163.328,200.704,163.328z"/>
	<path style="fill:#221F1F;" d="M334.234,108.032h-9.011c-2.867,0-5.12-2.253-5.12-5.12s2.253-5.12,5.12-5.12h9.011
		c2.867,0,5.12,2.253,5.12,5.12S337.101,108.032,334.234,108.032z"/>
	<path style="fill:#221F1F;" d="M186.778,108.032h-9.011c-2.867,0-5.12-2.253-5.12-5.12s2.253-5.12,5.12-5.12h9.011
		c2.867,0,5.12,2.253,5.12,5.12S189.645,108.032,186.778,108.032z"/>
	<path style="fill:#221F1F;" d="M311.296,163.328c-1.331,0-2.662-0.512-3.584-1.536l-6.349-6.349c-2.048-2.048-2.048-5.222,0-7.27
		s5.222-2.048,7.27,0l6.349,6.349c2.048,2.048,2.048,5.222,0,7.27C313.958,162.918,312.627,163.328,311.296,163.328z"/>
	<path style="fill:#221F1F;" d="M207.053,59.085c-1.331,0-2.662-0.512-3.584-1.536L197.12,51.2c-2.048-2.048-2.048-5.222,0-7.27
		s5.222-2.048,7.27,0l6.349,6.349c2.048,2.048,2.048,5.222,0,7.27C209.715,58.573,208.384,59.085,207.053,59.085z"/>
	<path style="fill:#221F1F;" d="M256,152.883c-2.867,0-5.12-2.253-5.12-5.12v-26.624c0-2.867,2.253-5.12,5.12-5.12
		c2.867,0,5.12,2.253,5.12,5.12v26.624C261.12,150.63,258.867,152.883,256,152.883z"/>
	<path style="fill:#221F1F;" d="M256,460.8c-2.867,0-5.12-2.253-5.12-5.12V231.424c0-2.867,2.253-5.12,5.12-5.12
		c2.867,0,5.12,2.253,5.12,5.12V455.68C261.12,458.547,258.867,460.8,256,460.8z"/>
</g>
<path style="fill:#EFEFEF;" d="M77.107,113.152h-5.12c-2.867,0-5.12-2.253-5.12-5.12s2.253-5.12,5.12-5.12h5.12
	c2.867,0,5.12,2.253,5.12,5.12S79.872,113.152,77.107,113.152z"/>
<g>
</g>
<g>
</g>
<g>
</g>
<g>
</g>
<g>
</g>
<g>
</g>
<g>
</g>
<g>
</g>
<g>
</g>
<g>
</g>
<g>
</g>
<g>
</g>
<g>
</g>
<g>
</g>
<g>
</g>
</svg>
