<svg height="469pt" viewBox="0 0 469 469.33334" width="469pt" xmlns="http://www.w3.org/2000/svg"><path d="m302.492188 24.992188c33.328124-33.308594 87.347656-33.300782 120.664062.015624 33.320312 33.320313 33.328125 87.339844.015625 120.664063-3.859375 3.863281-13.085937 13.089844-24.992187 24.996094h-241.359376c21.210938-21.214844 129.464844-129.464844 145.671876-145.675781zm0 0" fill="#f73478"/><path d="m302.492188 24.992188c33.328124-33.308594 87.347656-33.300782 120.664062.015624 33.320312 33.320313 33.328125 87.339844.015625 120.664063-3.859375 3.863281-13.085937 13.089844-24.992187 24.996094h-241.359376c21.210938-21.214844 129.464844-129.464844 145.671876-145.675781zm0 0" fill="#f9578f"/><path d="m195.292969 152.457031 64-64 15.082031 15.085938-64 64zm0 0" fill="#fb91b5"/><path d="m362.832031 170.667969c-22.640625.058593-44.367187-8.941407-60.332031-25l15.082031-15.085938c24.1875 24.1875 66.355469 24.148438 90.5 0 18.300781-18.300781 23.773438-45.828125 13.871094-69.738281-9.90625-23.914062-33.238281-39.507812-59.121094-39.511719v-21.332031c34.515625-.00390625 65.632813 20.785156 78.839844 52.671875 13.207031 31.890625 5.902344 68.59375-18.503906 92.996094-15.960938 16.0625-37.691407 25.066406-60.335938 25zm0 0" fill="#e41a67"/><path d="m426.832031 85.332031c0 35.347657-28.652343 64-64 64-35.34375 0-64-28.652343-64-64 0-35.34375 28.65625-64 64-64 35.347657 0 64 28.65625 64 64zm0 0" fill="#fde7b8"/><path d="m325.125 123.042969c20.824219 20.832031 54.597656 20.835937 75.425781.007812s20.824219-54.601562-.007812-75.425781" fill="#fde7b8"/><path d="m362.832031 149.332031c-16.980469.042969-33.273437-6.707031-45.25-18.75l15.085938-15.082031c16.144531 16.144531 44.269531 16.105469 60.332031 0 16.667969-16.65625 16.667969-43.675781 0-60.332031l15.082031-15.085938c18.300781 18.304688 23.773438 45.828125 13.871094 69.742188-9.90625 23.914062-33.238281 39.503906-59.121094 39.507812zm0 0" fill="#fad47f"/><path d="m384.167969 96c0 5.890625-4.777344 10.667969-10.667969 10.667969s-10.667969-4.777344-10.667969-10.667969 4.777344-10.667969 10.667969-10.667969 10.667969 4.777344 10.667969 10.667969zm0 0" fill="#38395e"/><path d="m341.5 53.332031c0 5.894531-4.773438 10.667969-10.667969 10.667969-5.890625 0-10.664062-4.773438-10.664062-10.667969 0-5.890625 4.773437-10.664062 10.664062-10.664062 5.894531 0 10.667969 4.773437 10.667969 10.664062zm0 0" fill="#38395e"/><path d="m341.5 96c0 5.890625-4.773438 10.667969-10.667969 10.667969-5.890625 0-10.664062-4.777344-10.664062-10.667969s4.773437-10.667969 10.664062-10.667969c5.894531 0 10.667969 4.777344 10.667969 10.667969zm0 0" fill="#fa7ca7"/><path d="m277.5 49.988281v120.679688h-42.667969v-78.015625c15.449219-15.445313 30.488281-30.484375 42.667969-42.664063zm0 0" fill="#7cd5e5"/><path d="m277.5 92.652344v78.015625h-42.667969v-35.347657c15.449219-15.445312 30.488281-30.488281 42.667969-42.667968zm0 0" fill="#27b9d4"/><path d="m216.625 131.125 42.667969-42.667969 15.082031 15.085938-42.667969 42.664062zm0 0" fill="#b4e7f0"/><path d="m192.167969 170.667969h-35.347657c6.050782-6.050781 19.289063-19.289063 35.347657-35.347657zm0 0" fill="#009fc2"/><path d="m384.167969 64h-10.667969c-17.671875 0-32-14.328125-32-32s14.328125-32 32-32h10.667969v21.332031h-10.667969c-5.894531-.003906-10.675781 4.773438-10.675781 10.667969s4.78125 10.671875 10.675781 10.667969h10.667969zm0 0" fill="#38395e"/><path d="m277.5 277.332031h-85.332031l-21.335938 64h128zm0 0" fill="#27b9d4"/><path d="m192.167969 277.332031-21.335938 64h85.335938l-16-64zm0 0" fill="#7cd5e5"/><path d="m338.609375 320h-207.554687c-14.628907 0-27.785157 8.90625-33.21875 22.488281l-31.109376 77.78125c-1.691406 4.226563-2.558593 8.734375-2.558593 13.289063 0 19.757812 16.015625 35.773437 35.773437 35.773437h269.78125c19.757813 0 35.777344-16.015625 35.777344-35.773437 0-4.554688-.867188-9.0625-2.558594-13.289063l-31.113281-77.78125c-5.433594-13.582031-18.585937-22.488281-33.21875-22.488281zm0 0" fill="#b4e7f0"/><path d="m128.167969 341.332031h106.664062v21.335938h-106.664062zm0 0" fill="#e3f6f9"/><path d="m106.832031 426.667969h149.335938v42.664062h-149.335938zm0 0" fill="#7cd5e5"/><path d="m21.5 149.332031h426.667969v42.667969c0 47.128906-38.207031 85.332031-85.335938 85.332031h-256c-47.128906 0-85.332031-38.203125-85.332031-85.332031zm0 0" fill="#fcafc9"/><path d="m362.832031 277.332031h-256v-21.332031h256c35.332031-.039062 63.960938-28.667969 64-64h21.335938c-.046875 47.109375-38.226563 85.285156-85.335938 85.332031zm0 0" fill="#fa7ca7"/><path d="m405.5 433.554688c0-4.550782-.867188-9.058594-2.558594-13.285157l-31.113281-77.78125c-5.433594-13.582031-18.585937-22.488281-33.214844-22.488281h-36.890625c-14.628906 0-27.785156 8.90625-33.21875 22.488281l-31.113281 77.78125c-4.40625 11.023438-3.0625 23.515625 3.59375 33.34375 6.65625 9.832031 17.753906 15.71875 29.625 15.71875h99.113281c19.761719 0 35.777344-16.015625 35.777344-35.777343zm0 0" fill="#5bcade"/><path d="m256.886719 429.613281 31.433593-79.164062 19.832032 7.875-31.429688 79.164062zm0 0" fill="#b4e7f0"/><path d="m369.730469 469.332031h-99.125v-21.332031h99.125c4.796875-.007812 9.277343-2.398438 11.960937-6.375s3.222656-9.027344 1.433594-13.480469l-31.082031-77.726562c-2.203125-5.492188-7.523438-9.089844-13.4375-9.085938v-21.332031c14.636719-.027344 27.808593 8.882812 33.226562 22.480469l31.105469 77.789062c4.414062 11.023438 3.070312 23.515625-3.585938 33.34375-6.652343 9.832031-17.75 15.722657-29.621093 15.71875zm0 0" fill="#27b9d4"/><path d="m277.5 149.332031h-256c-11.78125 0-21.332031 9.550781-21.332031 21.335938 0 11.78125 9.550781 21.332031 21.332031 21.332031 0 47.128906 38.203125 85.332031 85.332031 85.332031h106.667969c47.128906 0 85.332031-38.203125 85.332031-85.332031v-42.667969zm0 0" fill="#fee6ee"/><path d="m298.832031 149.332031h149.335938c11.78125 0 21.332031 9.550781 21.332031 21.335938 0 11.78125-9.550781 21.332031-21.332031 21.332031h-149.335938c-11.78125 0-21.332031-9.550781-21.332031-21.332031 0-11.785157 9.550781-21.335938 21.332031-21.335938zm0 0" fill="#fcafc9"/><path d="m21.5 277.332031h426.667969v21.335938h-426.667969zm0 0" fill="#7cd5e5"/><path d="m298.832031 277.332031h21.335938v21.335938h-21.335938zm0 0" fill="#27b9d4"/><path d="m21.5 277.332031h277.332031v21.335938h-277.332031zm0 0" fill="#b4e7f0"/><path d="m213.5 394.667969c0 29.453125-23.878906 53.332031-53.332031 53.332031-29.457031 0-53.335938-23.878906-53.335938-53.332031 0-29.457031 23.878907-53.335938 53.335938-53.335938 29.453125 0 53.332031 23.878907 53.332031 53.335938zm0 0" fill="#38395e"/><path d="m160.167969 448c-29.457031 0-53.335938-23.878906-53.335938-53.332031 0-29.457031 23.878907-53.335938 53.335938-53.335938v21.335938c-17.675781 0-32 14.324219-32 32 0 17.671875 14.324219 32 32 32zm0 0" fill="#171843"/><path d="m141.957031 397.792969 42.667969-42.667969 15.082031 15.082031-42.664062 42.667969zm0 0" fill="#f73478"/><path d="m170.832031 394.667969c0 5.890625-4.773437 10.664062-10.664062 10.664062s-10.667969-4.773437-10.667969-10.664062 4.777344-10.667969 10.667969-10.667969 10.664062 4.777344 10.664062 10.667969zm0 0" fill="#e3f6f9"/><path d="m21.5 192h277.332031c0 23.5625-19.101562 42.667969-42.664062 42.667969h-192c-23.566407 0-42.667969-19.105469-42.667969-42.667969zm0 0" fill="#fed2e1"/><path d="m320.167969 192h128c0 23.5625-19.105469 42.667969-42.667969 42.667969h-42.667969c-23.5625 0-42.664062-19.105469-42.664062-42.667969zm0 0" fill="#fa7ca7"/><path d="m234.832031 277.332031h64v21.335938h-64zm0 0" fill="#7cd5e5"/></svg>